<svg xmlns="http://www.w3.org/2000/svg" xmlns:xlink="http://www.w3.org/1999/xlink" version="1.1" id="Capa_1" x="0px" y="0px" viewBox="0 0 512 512" style="enable-background:new 0 0 512 512;" xml:space="preserve">



<path id="SVGCleanerId_0" style="fill:#C97629;" d="M290.9,500.4H58.2c-7,0-11.6-4.7-11.6-11.6V209.5H291v290.9H290.9z"/>
<g>
	<path id="SVGCleanerId_0_1_" style="fill:#C97629;" d="M290.9,500.4H58.2c-7,0-11.6-4.7-11.6-11.6V209.5H291v290.9H290.9z"/>
</g>
<path id="SVGCleanerId_1" style="fill:#B06328;" d="M290.9,500.4h162.9c7,0,11.6-4.7,11.6-11.6V209.5H290.9V500.4z"/>
<g>
	<path id="SVGCleanerId_1_1_" style="fill:#B06328;" d="M290.9,500.4h162.9c7,0,11.6-4.7,11.6-11.6V209.5H290.9V500.4z"/>
</g>
<path style="fill:#B06328;" d="M58.2,488.7V349.1c0-12.8,10.5-23.3,23.3-23.3h176.9c5.8,0,10.5-3.5,11.6-9.3l20.9-107.1H58.2H46.5  v116.4v162.9c0,7,4.7,11.6,11.6,11.6h232.7c-7-7-17.5-11.6-27.9-11.6H58.2z"/>
<path style="fill:#A35425;" d="M453.8,209.5H290.9l20.9,107.1c1.2,5.8,5.8,9.3,11.6,9.3h107.1c12.8,0,23.3,10.5,23.3,23.3v139.6  h-135c-10.5,0-20.9,4.7-27.9,11.6h162.9c7,0,11.6-4.7,11.6-11.6v-163V209.5H453.8z"/>
<path style="fill:#C97629;" d="M361.9,302.5h138.5c7,0,11.6-5.8,11.6-11.6c0-2.3,0-4.7-2.3-5.8l-44.2-75.6H290.9l51.2,82.6  C346.8,297.9,353.7,302.5,361.9,302.5z"/>
<path style="fill:#DA8C36;" d="M219.9,302.5H11.6c-7,0-11.6-5.8-11.6-11.6c0-2.3,0-4.7,2.3-5.8l44.2-75.6h244.4l-51.2,82.6  C235.1,297.9,228.1,302.5,219.9,302.5z"/>
<g>
	<path style="fill:#FFCB5B;" d="M75.6,418.9h69.8c3.5,0,5.8,2.3,5.8,5.8l0,0c0,3.5-2.3,5.8-5.8,5.8H75.6c-3.5,0-5.8-2.3-5.8-5.8l0,0   C69.8,421.2,72.1,418.9,75.6,418.9z"/>
	<path style="fill:#FFCB5B;" d="M75.6,442.2h46.5c3.5,0,5.8,2.3,5.8,5.8l0,0c0,3.5-2.3,5.8-5.8,5.8H75.6c-3.5,0-5.8-2.3-5.8-5.8l0,0   C69.8,444.5,72.1,442.2,75.6,442.2z"/>
</g>


<g>
</g>
<g>
</g>
<g>
</g>
<g>
</g>
<g>
</g>
<g>
</g>
<g>
</g>
<g>
</g>
<g>
</g>
<g>
</g>
<g>
</g>
<g>
</g>
<g>
</g>
<g>
</g>
<g>
</g>
</svg>
